<svg fill="none" viewBox="0 0 530 205" xmlns="http://www.w3.org/2000/svg">
  <path d="m74.132 127.783c5.644 0 10.229-4.584 10.229-10.229v-8.586c0-1.033.835-1.868 1.868-1.868h44.016c1.033 0 1.868.835 1.868 1.868v8.599c0 32.012-25.956 57.968-57.968 57.968-32.011 0-57.967-25.956-57.967-57.968v-21.067a1.866 1.866 0 0 0-1.868-1.868h-12.442a1.866 1.866 0 0 1-1.868-1.868v-33.734c0-1.033.835-1.868 1.868-1.868h12.428a1.866 1.866 0 0 0 1.869-1.868v-21.332c0-1.034.834-1.868 1.868-1.868h44.002c1.034 0 1.868.834 1.868 1.868v21.332c0 1.033.835 1.868 1.869 1.868h53.555c1.033 0 1.868.835 1.868 1.868v33.72a1.866 1.866 0 0 1-1.868 1.869h-53.555a1.866 1.866 0 0 0-1.869 1.868v21.067c0 5.645 4.585 10.229 10.23 10.229zm123.646 0c5.645 0 10.229-4.584 10.229-10.229v-58.524c0-1.033.835-1.868 1.868-1.868h44.917c1.06 0 1.908.901 1.855 1.961l-.901 58.431c0 32.011-25.956 57.968-57.968 57.968-32.011 0-57.967-25.957-57.967-57.968v-58.524c0-1.033.835-1.868 1.868-1.868h44.002c1.034 0 1.868.835 1.868 1.868v58.524c0 5.645 4.585 10.229 10.229 10.229z" fill="#0d0b68"/>
  <path d="m327.374 95.533-5.605 22.737c-1.259 4.624 2.067 9.367 6.863 9.5a13.905 13.905 0 0 0 13.807-10.256l2.464-9.062a1.871 1.871 0 0 1 1.802-1.378h43.87a1.868 1.868 0 0 1 1.802 2.358l-5.38 19.742c-7.459 27.348-32.302 46.334-60.657 46.334-34.197 0-59.04-32.514-50.044-65.519l3.087-13.475a1.873 1.873 0 0 0-1.802-2.359h-11.977a1.868 1.868 0 0 1-1.802-2.358l9.195-33.734a1.872 1.872 0 0 1 1.802-1.378h14.005a1.87 1.87 0 0 0 1.802-1.378l6.757-22.352a1.872 1.872 0 0 1 1.802-1.378h43.87a1.868 1.868 0 0 1 1.802 2.358l-6.228 20.392a1.873 1.873 0 0 0 1.802 2.358h53.37a1.868 1.868 0 0 1 1.802 2.358l-9.195 33.734a1.872 1.872 0 0 1-1.802 1.378h-55.397c-.861.013-1.59.57-1.815 1.378zm155.074-37.258-16.324 59.928a12.988 12.988 0 0 1-12.534 9.58c-5.3 0-9.155-5.048-7.764-10.163l15.913-58.365a1.873 1.873 0 0 0-1.802-2.358h-43.87c-.835 0-1.577.557-1.802 1.378l-14.707 53.979c-8.679 31.853 15.303 63.254 48.322 63.254 29.732 0 55.794-19.901 63.611-48.6l18.444-67.666a1.873 1.873 0 0 0-1.802-2.358h-43.87c-.848.026-1.59.583-1.815 1.391z" fill="#7d71ff"/>
</svg>
